<mxfile host="app.diagrams.net" modified="2020-11-21T20:49:51.377Z" agent="5.0 (Macintosh; Intel Mac OS X 11_0_0) AppleWebKit/537.36 (KHTML, like Gecko) Chrome/86.0.4240.198 Safari/537.36" etag="-0amizZV40YnIZL0IkUY" version="13.10.0" type="github">
  <diagram id="R2lEEEUBdFMjLlhIrx00" name="DER">
    <mxGraphModel dx="1692" dy="2638" grid="1" gridSize="10" guides="1" tooltips="1" connect="1" arrows="1" fold="1" page="1" pageScale="1" pageWidth="850" pageHeight="1100" math="0" shadow="0" extFonts="Permanent Marker^https://fonts.googleapis.com/css?family=Permanent+Marker">
      <root>
        <mxCell id="0" />
        <mxCell id="1" parent="0" />
        <mxCell id="c67V-Vx4SSD8u7TdkO2R-14" style="edgeStyle=orthogonalEdgeStyle;rounded=0;orthogonalLoop=1;jettySize=auto;html=1;endArrow=none;endFill=0;" edge="1" parent="1" source="c67V-Vx4SSD8u7TdkO2R-6" target="c67V-Vx4SSD8u7TdkO2R-13">
          <mxGeometry relative="1" as="geometry">
            <Array as="points">
              <mxPoint x="530" y="90" />
              <mxPoint x="530" y="90" />
            </Array>
          </mxGeometry>
        </mxCell>
        <mxCell id="c67V-Vx4SSD8u7TdkO2R-15" style="edgeStyle=orthogonalEdgeStyle;rounded=0;orthogonalLoop=1;jettySize=auto;html=1;entryX=1;entryY=1;entryDx=0;entryDy=0;endArrow=none;endFill=0;" edge="1" parent="1" source="c67V-Vx4SSD8u7TdkO2R-6" target="c67V-Vx4SSD8u7TdkO2R-7">
          <mxGeometry relative="1" as="geometry">
            <Array as="points">
              <mxPoint x="430" y="71" />
              <mxPoint x="442" y="71" />
            </Array>
          </mxGeometry>
        </mxCell>
        <mxCell id="c67V-Vx4SSD8u7TdkO2R-16" style="edgeStyle=orthogonalEdgeStyle;rounded=0;orthogonalLoop=1;jettySize=auto;html=1;endArrow=none;endFill=0;" edge="1" parent="1" source="c67V-Vx4SSD8u7TdkO2R-6" target="c67V-Vx4SSD8u7TdkO2R-12">
          <mxGeometry relative="1" as="geometry">
            <Array as="points">
              <mxPoint x="350" y="190" />
              <mxPoint x="350" y="90" />
            </Array>
          </mxGeometry>
        </mxCell>
        <mxCell id="c67V-Vx4SSD8u7TdkO2R-17" style="edgeStyle=orthogonalEdgeStyle;rounded=0;orthogonalLoop=1;jettySize=auto;html=1;endArrow=none;endFill=0;" edge="1" parent="1" source="c67V-Vx4SSD8u7TdkO2R-6" target="c67V-Vx4SSD8u7TdkO2R-11">
          <mxGeometry relative="1" as="geometry">
            <Array as="points">
              <mxPoint x="320" y="200" />
              <mxPoint x="320" y="160" />
            </Array>
          </mxGeometry>
        </mxCell>
        <mxCell id="c67V-Vx4SSD8u7TdkO2R-18" style="edgeStyle=orthogonalEdgeStyle;rounded=0;orthogonalLoop=1;jettySize=auto;html=1;endArrow=none;endFill=0;" edge="1" parent="1" source="c67V-Vx4SSD8u7TdkO2R-6" target="c67V-Vx4SSD8u7TdkO2R-10">
          <mxGeometry relative="1" as="geometry">
            <Array as="points">
              <mxPoint x="318" y="230" />
              <mxPoint x="318" y="280" />
            </Array>
          </mxGeometry>
        </mxCell>
        <mxCell id="c67V-Vx4SSD8u7TdkO2R-19" style="edgeStyle=orthogonalEdgeStyle;rounded=0;orthogonalLoop=1;jettySize=auto;html=1;entryX=1;entryY=0;entryDx=0;entryDy=0;endArrow=none;endFill=0;" edge="1" parent="1" source="c67V-Vx4SSD8u7TdkO2R-6" target="c67V-Vx4SSD8u7TdkO2R-9">
          <mxGeometry relative="1" as="geometry">
            <Array as="points">
              <mxPoint x="360" y="240" />
              <mxPoint x="360" y="342" />
            </Array>
          </mxGeometry>
        </mxCell>
        <mxCell id="c67V-Vx4SSD8u7TdkO2R-20" style="edgeStyle=orthogonalEdgeStyle;rounded=0;orthogonalLoop=1;jettySize=auto;html=1;entryX=0.617;entryY=0.025;entryDx=0;entryDy=0;entryPerimeter=0;endArrow=none;endFill=0;" edge="1" parent="1" source="c67V-Vx4SSD8u7TdkO2R-6" target="c67V-Vx4SSD8u7TdkO2R-8">
          <mxGeometry relative="1" as="geometry" />
        </mxCell>
        <mxCell id="c67V-Vx4SSD8u7TdkO2R-23" style="edgeStyle=orthogonalEdgeStyle;rounded=0;orthogonalLoop=1;jettySize=auto;html=1;endArrow=none;endFill=0;entryX=0.5;entryY=1;entryDx=0;entryDy=0;exitX=0.75;exitY=1;exitDx=0;exitDy=0;" edge="1" parent="1" source="c67V-Vx4SSD8u7TdkO2R-6" target="c67V-Vx4SSD8u7TdkO2R-21">
          <mxGeometry relative="1" as="geometry">
            <mxPoint x="710" y="320" as="targetPoint" />
            <Array as="points">
              <mxPoint x="515" y="255" />
            </Array>
          </mxGeometry>
        </mxCell>
        <mxCell id="c67V-Vx4SSD8u7TdkO2R-37" style="edgeStyle=orthogonalEdgeStyle;rounded=0;orthogonalLoop=1;jettySize=auto;html=1;entryX=0;entryY=0.5;entryDx=0;entryDy=0;endArrow=none;endFill=0;startArrow=ERmandOne;startFill=0;" edge="1" parent="1" source="c67V-Vx4SSD8u7TdkO2R-6" target="c67V-Vx4SSD8u7TdkO2R-36">
          <mxGeometry relative="1" as="geometry">
            <Array as="points">
              <mxPoint x="500" y="335" />
            </Array>
          </mxGeometry>
        </mxCell>
        <mxCell id="c67V-Vx4SSD8u7TdkO2R-6" value="Cars" style="rounded=0;whiteSpace=wrap;html=1;fillColor=#d5e8d4;strokeColor=#82b366;" vertex="1" parent="1">
          <mxGeometry x="425" y="180" width="120" height="60" as="geometry" />
        </mxCell>
        <mxCell id="c67V-Vx4SSD8u7TdkO2R-7" value="Color" style="ellipse;whiteSpace=wrap;html=1;" vertex="1" parent="1">
          <mxGeometry x="340" y="-10" width="120" height="80" as="geometry" />
        </mxCell>
        <mxCell id="c67V-Vx4SSD8u7TdkO2R-8" value="Brand" style="ellipse;whiteSpace=wrap;html=1;" vertex="1" parent="1">
          <mxGeometry x="330" y="370" width="120" height="80" as="geometry" />
        </mxCell>
        <mxCell id="c67V-Vx4SSD8u7TdkO2R-9" value="Category_ID" style="ellipse;whiteSpace=wrap;html=1;fillColor=#dae8fc;strokeColor=#6c8ebf;" vertex="1" parent="1">
          <mxGeometry x="190" y="330" width="120" height="80" as="geometry" />
        </mxCell>
        <mxCell id="c67V-Vx4SSD8u7TdkO2R-10" value="Purchase Date" style="ellipse;whiteSpace=wrap;html=1;" vertex="1" parent="1">
          <mxGeometry x="90" y="240" width="120" height="80" as="geometry" />
        </mxCell>
        <mxCell id="c67V-Vx4SSD8u7TdkO2R-11" value="Model" style="ellipse;whiteSpace=wrap;html=1;" vertex="1" parent="1">
          <mxGeometry x="80" y="120" width="120" height="80" as="geometry" />
        </mxCell>
        <mxCell id="c67V-Vx4SSD8u7TdkO2R-12" value="Description" style="ellipse;whiteSpace=wrap;html=1;" vertex="1" parent="1">
          <mxGeometry x="190" y="20" width="120" height="80" as="geometry" />
        </mxCell>
        <mxCell id="c67V-Vx4SSD8u7TdkO2R-13" value="Chassi Number" style="ellipse;whiteSpace=wrap;html=1;fillColor=#f8cecc;strokeColor=#b85450;" vertex="1" parent="1">
          <mxGeometry x="490" y="-20" width="120" height="80" as="geometry" />
        </mxCell>
        <mxCell id="c67V-Vx4SSD8u7TdkO2R-22" style="edgeStyle=orthogonalEdgeStyle;rounded=0;orthogonalLoop=1;jettySize=auto;html=1;entryX=1;entryY=0.5;entryDx=0;entryDy=0;endArrow=ERoneToMany;endFill=0;" edge="1" parent="1" source="c67V-Vx4SSD8u7TdkO2R-21" target="c67V-Vx4SSD8u7TdkO2R-6">
          <mxGeometry relative="1" as="geometry">
            <Array as="points">
              <mxPoint x="650" y="210" />
              <mxPoint x="650" y="210" />
            </Array>
          </mxGeometry>
        </mxCell>
        <mxCell id="c67V-Vx4SSD8u7TdkO2R-25" style="edgeStyle=orthogonalEdgeStyle;rounded=0;orthogonalLoop=1;jettySize=auto;html=1;entryX=0;entryY=0.5;entryDx=0;entryDy=0;endArrow=ERmandOne;endFill=0;" edge="1" parent="1" source="c67V-Vx4SSD8u7TdkO2R-21" target="c67V-Vx4SSD8u7TdkO2R-24">
          <mxGeometry relative="1" as="geometry" />
        </mxCell>
        <mxCell id="c67V-Vx4SSD8u7TdkO2R-21" value="Pertence a uma categoria" style="rhombus;whiteSpace=wrap;html=1;fillColor=#60a917;strokeColor=#2D7600;fontColor=#ffffff;" vertex="1" parent="1">
          <mxGeometry x="720" y="165" width="110" height="90" as="geometry" />
        </mxCell>
        <mxCell id="c67V-Vx4SSD8u7TdkO2R-29" value="" style="edgeStyle=orthogonalEdgeStyle;rounded=0;orthogonalLoop=1;jettySize=auto;html=1;endArrow=none;endFill=0;" edge="1" parent="1" source="c67V-Vx4SSD8u7TdkO2R-24" target="c67V-Vx4SSD8u7TdkO2R-28">
          <mxGeometry relative="1" as="geometry" />
        </mxCell>
        <mxCell id="c67V-Vx4SSD8u7TdkO2R-30" style="edgeStyle=orthogonalEdgeStyle;rounded=0;orthogonalLoop=1;jettySize=auto;html=1;entryX=0;entryY=0.5;entryDx=0;entryDy=0;endArrow=none;endFill=0;" edge="1" parent="1" source="c67V-Vx4SSD8u7TdkO2R-24" target="c67V-Vx4SSD8u7TdkO2R-27">
          <mxGeometry relative="1" as="geometry">
            <Array as="points">
              <mxPoint x="1070" y="110" />
            </Array>
          </mxGeometry>
        </mxCell>
        <mxCell id="c67V-Vx4SSD8u7TdkO2R-31" style="edgeStyle=orthogonalEdgeStyle;rounded=0;orthogonalLoop=1;jettySize=auto;html=1;endArrow=none;endFill=0;" edge="1" parent="1" source="c67V-Vx4SSD8u7TdkO2R-24" target="c67V-Vx4SSD8u7TdkO2R-26">
          <mxGeometry relative="1" as="geometry">
            <Array as="points">
              <mxPoint x="1070" y="270" />
            </Array>
          </mxGeometry>
        </mxCell>
        <mxCell id="c67V-Vx4SSD8u7TdkO2R-24" value="Cars" style="rounded=0;whiteSpace=wrap;html=1;fillColor=#d5e8d4;strokeColor=#82b366;" vertex="1" parent="1">
          <mxGeometry x="970" y="180" width="120" height="60" as="geometry" />
        </mxCell>
        <mxCell id="c67V-Vx4SSD8u7TdkO2R-26" value="Description" style="ellipse;whiteSpace=wrap;html=1;" vertex="1" parent="1">
          <mxGeometry x="1150" y="230" width="120" height="80" as="geometry" />
        </mxCell>
        <mxCell id="c67V-Vx4SSD8u7TdkO2R-27" value="name" style="ellipse;whiteSpace=wrap;html=1;" vertex="1" parent="1">
          <mxGeometry x="1130" y="70" width="120" height="80" as="geometry" />
        </mxCell>
        <mxCell id="c67V-Vx4SSD8u7TdkO2R-28" value="Category_id" style="ellipse;whiteSpace=wrap;html=1;fillColor=#f8cecc;strokeColor=#b85450;" vertex="1" parent="1">
          <mxGeometry x="970" y="10" width="120" height="80" as="geometry" />
        </mxCell>
        <mxCell id="c67V-Vx4SSD8u7TdkO2R-55" style="edgeStyle=orthogonalEdgeStyle;rounded=0;orthogonalLoop=1;jettySize=auto;html=1;entryX=0.5;entryY=0;entryDx=0;entryDy=0;startArrow=ERoneToMany;startFill=0;endArrow=none;endFill=0;" edge="1" parent="1" source="c67V-Vx4SSD8u7TdkO2R-32" target="c67V-Vx4SSD8u7TdkO2R-54">
          <mxGeometry relative="1" as="geometry">
            <Array as="points">
              <mxPoint x="355" y="480" />
            </Array>
          </mxGeometry>
        </mxCell>
        <mxCell id="c67V-Vx4SSD8u7TdkO2R-71" style="edgeStyle=orthogonalEdgeStyle;rounded=0;orthogonalLoop=1;jettySize=auto;html=1;startArrow=ERoneToMany;startFill=0;endArrow=none;endFill=0;" edge="1" parent="1" source="c67V-Vx4SSD8u7TdkO2R-32" target="c67V-Vx4SSD8u7TdkO2R-70">
          <mxGeometry relative="1" as="geometry">
            <Array as="points">
              <mxPoint x="830" y="590" />
              <mxPoint x="1035" y="590" />
            </Array>
          </mxGeometry>
        </mxCell>
        <mxCell id="c67V-Vx4SSD8u7TdkO2R-32" value="Reservations" style="rounded=0;whiteSpace=wrap;html=1;fillColor=#d5e8d4;strokeColor=#82b366;" vertex="1" parent="1">
          <mxGeometry x="715" y="430" width="120" height="60" as="geometry" />
        </mxCell>
        <mxCell id="c67V-Vx4SSD8u7TdkO2R-38" style="edgeStyle=orthogonalEdgeStyle;rounded=0;orthogonalLoop=1;jettySize=auto;html=1;startArrow=none;startFill=0;endArrow=ERoneToMany;endFill=0;" edge="1" parent="1" source="c67V-Vx4SSD8u7TdkO2R-36" target="c67V-Vx4SSD8u7TdkO2R-32">
          <mxGeometry relative="1" as="geometry" />
        </mxCell>
        <mxCell id="c67V-Vx4SSD8u7TdkO2R-39" style="edgeStyle=orthogonalEdgeStyle;rounded=0;orthogonalLoop=1;jettySize=auto;html=1;entryX=0.75;entryY=0;entryDx=0;entryDy=0;startArrow=none;startFill=0;endArrow=none;endFill=0;" edge="1" parent="1" source="c67V-Vx4SSD8u7TdkO2R-36" target="c67V-Vx4SSD8u7TdkO2R-32">
          <mxGeometry relative="1" as="geometry">
            <Array as="points">
              <mxPoint x="805" y="320" />
            </Array>
          </mxGeometry>
        </mxCell>
        <mxCell id="c67V-Vx4SSD8u7TdkO2R-36" value="Reservando um carro" style="rhombus;whiteSpace=wrap;html=1;fillColor=#60a917;strokeColor=#2D7600;fontColor=#ffffff;" vertex="1" parent="1">
          <mxGeometry x="545" y="290" width="110" height="90" as="geometry" />
        </mxCell>
        <mxCell id="c67V-Vx4SSD8u7TdkO2R-47" value="" style="edgeStyle=orthogonalEdgeStyle;rounded=0;orthogonalLoop=1;jettySize=auto;html=1;startArrow=none;startFill=0;endArrow=none;endFill=0;" edge="1" parent="1" source="c67V-Vx4SSD8u7TdkO2R-40" target="c67V-Vx4SSD8u7TdkO2R-32">
          <mxGeometry relative="1" as="geometry">
            <Array as="points">
              <mxPoint x="710" y="440" />
              <mxPoint x="710" y="440" />
            </Array>
          </mxGeometry>
        </mxCell>
        <mxCell id="c67V-Vx4SSD8u7TdkO2R-40" value="pickup_date" style="ellipse;whiteSpace=wrap;html=1;" vertex="1" parent="1">
          <mxGeometry x="550" y="390" width="120" height="80" as="geometry" />
        </mxCell>
        <mxCell id="c67V-Vx4SSD8u7TdkO2R-48" value="" style="edgeStyle=orthogonalEdgeStyle;rounded=0;orthogonalLoop=1;jettySize=auto;html=1;startArrow=none;startFill=0;endArrow=none;endFill=0;entryX=0.108;entryY=0.983;entryDx=0;entryDy=0;entryPerimeter=0;" edge="1" parent="1" source="c67V-Vx4SSD8u7TdkO2R-41" target="c67V-Vx4SSD8u7TdkO2R-32">
          <mxGeometry relative="1" as="geometry">
            <Array as="points">
              <mxPoint x="728" y="510" />
            </Array>
          </mxGeometry>
        </mxCell>
        <mxCell id="c67V-Vx4SSD8u7TdkO2R-41" value="car_chassi_number" style="ellipse;whiteSpace=wrap;html=1;fillColor=#dae8fc;strokeColor=#6c8ebf;" vertex="1" parent="1">
          <mxGeometry x="590" y="500" width="120" height="80" as="geometry" />
        </mxCell>
        <mxCell id="c67V-Vx4SSD8u7TdkO2R-49" value="" style="edgeStyle=orthogonalEdgeStyle;rounded=0;orthogonalLoop=1;jettySize=auto;html=1;startArrow=none;startFill=0;endArrow=none;endFill=0;entryX=0.25;entryY=1;entryDx=0;entryDy=0;" edge="1" parent="1" source="c67V-Vx4SSD8u7TdkO2R-42" target="c67V-Vx4SSD8u7TdkO2R-32">
          <mxGeometry relative="1" as="geometry">
            <mxPoint x="740" y="520" as="targetPoint" />
            <Array as="points">
              <mxPoint x="740" y="490" />
            </Array>
          </mxGeometry>
        </mxCell>
        <mxCell id="c67V-Vx4SSD8u7TdkO2R-42" value="cust_id" style="ellipse;whiteSpace=wrap;html=1;fillColor=#dae8fc;strokeColor=#6c8ebf;" vertex="1" parent="1">
          <mxGeometry x="680" y="580" width="120" height="80" as="geometry" />
        </mxCell>
        <mxCell id="c67V-Vx4SSD8u7TdkO2R-50" style="edgeStyle=orthogonalEdgeStyle;rounded=0;orthogonalLoop=1;jettySize=auto;html=1;startArrow=none;startFill=0;endArrow=none;endFill=0;" edge="1" parent="1" source="c67V-Vx4SSD8u7TdkO2R-43">
          <mxGeometry relative="1" as="geometry">
            <mxPoint x="810" y="490" as="targetPoint" />
            <Array as="points">
              <mxPoint x="810" y="490" />
            </Array>
          </mxGeometry>
        </mxCell>
        <mxCell id="c67V-Vx4SSD8u7TdkO2R-43" value="pickup_location" style="ellipse;whiteSpace=wrap;html=1;fillColor=#dae8fc;strokeColor=#6c8ebf;" vertex="1" parent="1">
          <mxGeometry x="750" y="670" width="120" height="80" as="geometry" />
        </mxCell>
        <mxCell id="c67V-Vx4SSD8u7TdkO2R-51" style="edgeStyle=orthogonalEdgeStyle;rounded=0;orthogonalLoop=1;jettySize=auto;html=1;entryX=1;entryY=0.75;entryDx=0;entryDy=0;startArrow=none;startFill=0;endArrow=none;endFill=0;" edge="1" parent="1" source="c67V-Vx4SSD8u7TdkO2R-44" target="c67V-Vx4SSD8u7TdkO2R-32">
          <mxGeometry relative="1" as="geometry" />
        </mxCell>
        <mxCell id="c67V-Vx4SSD8u7TdkO2R-44" value="Return Date" style="ellipse;whiteSpace=wrap;html=1;" vertex="1" parent="1">
          <mxGeometry x="900" y="490" width="120" height="80" as="geometry" />
        </mxCell>
        <mxCell id="c67V-Vx4SSD8u7TdkO2R-52" style="edgeStyle=orthogonalEdgeStyle;rounded=0;orthogonalLoop=1;jettySize=auto;html=1;startArrow=none;startFill=0;endArrow=none;endFill=0;" edge="1" parent="1" source="c67V-Vx4SSD8u7TdkO2R-45" target="c67V-Vx4SSD8u7TdkO2R-32">
          <mxGeometry relative="1" as="geometry" />
        </mxCell>
        <mxCell id="c67V-Vx4SSD8u7TdkO2R-45" value="Return Location" style="ellipse;whiteSpace=wrap;html=1;" vertex="1" parent="1">
          <mxGeometry x="920" y="400" width="120" height="80" as="geometry" />
        </mxCell>
        <mxCell id="c67V-Vx4SSD8u7TdkO2R-53" style="edgeStyle=orthogonalEdgeStyle;rounded=0;orthogonalLoop=1;jettySize=auto;html=1;entryX=0.925;entryY=-0.017;entryDx=0;entryDy=0;entryPerimeter=0;startArrow=none;startFill=0;endArrow=none;endFill=0;" edge="1" parent="1" source="c67V-Vx4SSD8u7TdkO2R-46" target="c67V-Vx4SSD8u7TdkO2R-32">
          <mxGeometry relative="1" as="geometry" />
        </mxCell>
        <mxCell id="c67V-Vx4SSD8u7TdkO2R-46" value="ID" style="ellipse;whiteSpace=wrap;html=1;" vertex="1" parent="1">
          <mxGeometry x="835" y="295" width="120" height="80" as="geometry" />
        </mxCell>
        <mxCell id="c67V-Vx4SSD8u7TdkO2R-57" style="edgeStyle=orthogonalEdgeStyle;rounded=0;orthogonalLoop=1;jettySize=auto;html=1;entryX=0.5;entryY=0;entryDx=0;entryDy=0;startArrow=none;startFill=0;endArrow=ERmandOne;endFill=0;" edge="1" parent="1" source="c67V-Vx4SSD8u7TdkO2R-54" target="c67V-Vx4SSD8u7TdkO2R-56">
          <mxGeometry relative="1" as="geometry" />
        </mxCell>
        <mxCell id="c67V-Vx4SSD8u7TdkO2R-54" value="Uma reserva é retirada em devolvidade em uma localidade" style="rhombus;whiteSpace=wrap;html=1;fillColor=#60a917;strokeColor=#2D7600;fontColor=#ffffff;" vertex="1" parent="1">
          <mxGeometry x="250" y="520" width="210" height="110" as="geometry" />
        </mxCell>
        <mxCell id="c67V-Vx4SSD8u7TdkO2R-56" value="Locations" style="rounded=0;whiteSpace=wrap;html=1;fillColor=#d5e8d4;strokeColor=#82b366;" vertex="1" parent="1">
          <mxGeometry x="295" y="760" width="120" height="60" as="geometry" />
        </mxCell>
        <mxCell id="c67V-Vx4SSD8u7TdkO2R-65" style="edgeStyle=orthogonalEdgeStyle;rounded=0;orthogonalLoop=1;jettySize=auto;html=1;startArrow=none;startFill=0;endArrow=none;endFill=0;" edge="1" parent="1" source="c67V-Vx4SSD8u7TdkO2R-59">
          <mxGeometry relative="1" as="geometry">
            <mxPoint x="295" y="770" as="targetPoint" />
            <Array as="points">
              <mxPoint x="190" y="770" />
            </Array>
          </mxGeometry>
        </mxCell>
        <mxCell id="c67V-Vx4SSD8u7TdkO2R-59" value="loc_id" style="ellipse;whiteSpace=wrap;html=1;fillColor=#dae8fc;strokeColor=#6c8ebf;" vertex="1" parent="1">
          <mxGeometry x="130" y="660" width="120" height="80" as="geometry" />
        </mxCell>
        <mxCell id="c67V-Vx4SSD8u7TdkO2R-69" style="edgeStyle=orthogonalEdgeStyle;rounded=0;orthogonalLoop=1;jettySize=auto;html=1;entryX=1;entryY=0.5;entryDx=0;entryDy=0;startArrow=none;startFill=0;endArrow=none;endFill=0;" edge="1" parent="1" source="c67V-Vx4SSD8u7TdkO2R-60" target="c67V-Vx4SSD8u7TdkO2R-56">
          <mxGeometry relative="1" as="geometry" />
        </mxCell>
        <mxCell id="c67V-Vx4SSD8u7TdkO2R-60" value="country" style="ellipse;whiteSpace=wrap;html=1;" vertex="1" parent="1">
          <mxGeometry x="450" y="750" width="120" height="80" as="geometry" />
        </mxCell>
        <mxCell id="c67V-Vx4SSD8u7TdkO2R-68" style="edgeStyle=orthogonalEdgeStyle;rounded=0;orthogonalLoop=1;jettySize=auto;html=1;entryX=0.825;entryY=1.017;entryDx=0;entryDy=0;entryPerimeter=0;startArrow=none;startFill=0;endArrow=none;endFill=0;" edge="1" parent="1" source="c67V-Vx4SSD8u7TdkO2R-61" target="c67V-Vx4SSD8u7TdkO2R-56">
          <mxGeometry relative="1" as="geometry" />
        </mxCell>
        <mxCell id="c67V-Vx4SSD8u7TdkO2R-61" value="state" style="ellipse;whiteSpace=wrap;html=1;" vertex="1" parent="1">
          <mxGeometry x="425" y="840" width="120" height="80" as="geometry" />
        </mxCell>
        <mxCell id="c67V-Vx4SSD8u7TdkO2R-67" style="edgeStyle=orthogonalEdgeStyle;rounded=0;orthogonalLoop=1;jettySize=auto;html=1;entryX=0.5;entryY=1;entryDx=0;entryDy=0;startArrow=none;startFill=0;endArrow=none;endFill=0;" edge="1" parent="1" source="c67V-Vx4SSD8u7TdkO2R-62" target="c67V-Vx4SSD8u7TdkO2R-56">
          <mxGeometry relative="1" as="geometry" />
        </mxCell>
        <mxCell id="c67V-Vx4SSD8u7TdkO2R-62" value="phone" style="ellipse;whiteSpace=wrap;html=1;" vertex="1" parent="1">
          <mxGeometry x="295" y="900" width="120" height="80" as="geometry" />
        </mxCell>
        <mxCell id="c67V-Vx4SSD8u7TdkO2R-66" style="edgeStyle=orthogonalEdgeStyle;rounded=0;orthogonalLoop=1;jettySize=auto;html=1;entryX=0;entryY=0.75;entryDx=0;entryDy=0;startArrow=none;startFill=0;endArrow=none;endFill=0;" edge="1" parent="1" source="c67V-Vx4SSD8u7TdkO2R-63" target="c67V-Vx4SSD8u7TdkO2R-56">
          <mxGeometry relative="1" as="geometry">
            <Array as="points">
              <mxPoint x="200" y="805" />
            </Array>
          </mxGeometry>
        </mxCell>
        <mxCell id="c67V-Vx4SSD8u7TdkO2R-63" value="address" style="ellipse;whiteSpace=wrap;html=1;" vertex="1" parent="1">
          <mxGeometry x="140" y="840" width="120" height="80" as="geometry" />
        </mxCell>
        <mxCell id="c67V-Vx4SSD8u7TdkO2R-73" style="edgeStyle=orthogonalEdgeStyle;rounded=0;orthogonalLoop=1;jettySize=auto;html=1;entryX=0;entryY=0.75;entryDx=0;entryDy=0;startArrow=none;startFill=0;endArrow=ERoneToMany;endFill=0;exitX=1;exitY=0.5;exitDx=0;exitDy=0;" edge="1" parent="1" source="c67V-Vx4SSD8u7TdkO2R-70" target="c67V-Vx4SSD8u7TdkO2R-72">
          <mxGeometry relative="1" as="geometry" />
        </mxCell>
        <mxCell id="c67V-Vx4SSD8u7TdkO2R-70" value="um carro é alugado por um cliente" style="rhombus;whiteSpace=wrap;html=1;fillColor=#60a917;strokeColor=#2D7600;fontColor=#ffffff;" vertex="1" parent="1">
          <mxGeometry x="930" y="670" width="210" height="110" as="geometry" />
        </mxCell>
        <mxCell id="c67V-Vx4SSD8u7TdkO2R-74" style="edgeStyle=orthogonalEdgeStyle;rounded=0;orthogonalLoop=1;jettySize=auto;html=1;entryX=1;entryY=0;entryDx=0;entryDy=0;startArrow=none;startFill=0;endArrow=none;endFill=0;" edge="1" parent="1" source="c67V-Vx4SSD8u7TdkO2R-72" target="c67V-Vx4SSD8u7TdkO2R-70">
          <mxGeometry relative="1" as="geometry">
            <Array as="points">
              <mxPoint x="1200" y="698" />
            </Array>
          </mxGeometry>
        </mxCell>
        <mxCell id="c67V-Vx4SSD8u7TdkO2R-82" style="edgeStyle=orthogonalEdgeStyle;rounded=0;orthogonalLoop=1;jettySize=auto;html=1;startArrow=none;startFill=0;endArrow=none;endFill=0;" edge="1" parent="1" source="c67V-Vx4SSD8u7TdkO2R-72" target="c67V-Vx4SSD8u7TdkO2R-76">
          <mxGeometry relative="1" as="geometry">
            <Array as="points">
              <mxPoint x="1280" y="648" />
              <mxPoint x="1200" y="648" />
            </Array>
          </mxGeometry>
        </mxCell>
        <mxCell id="c67V-Vx4SSD8u7TdkO2R-83" style="edgeStyle=orthogonalEdgeStyle;rounded=0;orthogonalLoop=1;jettySize=auto;html=1;startArrow=none;startFill=0;endArrow=none;endFill=0;" edge="1" parent="1" source="c67V-Vx4SSD8u7TdkO2R-72" target="c67V-Vx4SSD8u7TdkO2R-81">
          <mxGeometry relative="1" as="geometry" />
        </mxCell>
        <mxCell id="c67V-Vx4SSD8u7TdkO2R-84" style="edgeStyle=orthogonalEdgeStyle;rounded=0;orthogonalLoop=1;jettySize=auto;html=1;entryX=0.017;entryY=0.588;entryDx=0;entryDy=0;entryPerimeter=0;startArrow=none;startFill=0;endArrow=none;endFill=0;" edge="1" parent="1" source="c67V-Vx4SSD8u7TdkO2R-72" target="c67V-Vx4SSD8u7TdkO2R-80">
          <mxGeometry relative="1" as="geometry">
            <Array as="points">
              <mxPoint x="1360" y="640" />
              <mxPoint x="1402" y="640" />
            </Array>
          </mxGeometry>
        </mxCell>
        <mxCell id="c67V-Vx4SSD8u7TdkO2R-85" style="edgeStyle=orthogonalEdgeStyle;rounded=0;orthogonalLoop=1;jettySize=auto;html=1;startArrow=none;startFill=0;endArrow=none;endFill=0;" edge="1" parent="1" source="c67V-Vx4SSD8u7TdkO2R-72" target="c67V-Vx4SSD8u7TdkO2R-79">
          <mxGeometry relative="1" as="geometry" />
        </mxCell>
        <mxCell id="c67V-Vx4SSD8u7TdkO2R-86" style="edgeStyle=orthogonalEdgeStyle;rounded=0;orthogonalLoop=1;jettySize=auto;html=1;entryX=0;entryY=0;entryDx=0;entryDy=0;startArrow=none;startFill=0;endArrow=none;endFill=0;" edge="1" parent="1" source="c67V-Vx4SSD8u7TdkO2R-72" target="c67V-Vx4SSD8u7TdkO2R-78">
          <mxGeometry relative="1" as="geometry">
            <Array as="points">
              <mxPoint x="1418" y="730" />
            </Array>
          </mxGeometry>
        </mxCell>
        <mxCell id="c67V-Vx4SSD8u7TdkO2R-87" style="edgeStyle=orthogonalEdgeStyle;rounded=0;orthogonalLoop=1;jettySize=auto;html=1;startArrow=none;startFill=0;endArrow=none;endFill=0;exitX=0.5;exitY=1;exitDx=0;exitDy=0;" edge="1" parent="1" source="c67V-Vx4SSD8u7TdkO2R-72" target="c67V-Vx4SSD8u7TdkO2R-77">
          <mxGeometry relative="1" as="geometry">
            <Array as="points">
              <mxPoint x="1320" y="810" />
              <mxPoint x="1260" y="810" />
            </Array>
          </mxGeometry>
        </mxCell>
        <mxCell id="c67V-Vx4SSD8u7TdkO2R-88" style="edgeStyle=orthogonalEdgeStyle;rounded=0;orthogonalLoop=1;jettySize=auto;html=1;startArrow=none;startFill=0;endArrow=none;endFill=0;" edge="1" parent="1" source="c67V-Vx4SSD8u7TdkO2R-72" target="c67V-Vx4SSD8u7TdkO2R-75">
          <mxGeometry relative="1" as="geometry">
            <Array as="points">
              <mxPoint x="1280" y="765" />
              <mxPoint x="1160" y="765" />
            </Array>
          </mxGeometry>
        </mxCell>
        <mxCell id="c67V-Vx4SSD8u7TdkO2R-91" style="edgeStyle=orthogonalEdgeStyle;rounded=0;orthogonalLoop=1;jettySize=auto;html=1;startArrow=none;startFill=0;endArrow=none;endFill=0;" edge="1" parent="1" source="c67V-Vx4SSD8u7TdkO2R-72" target="c67V-Vx4SSD8u7TdkO2R-89">
          <mxGeometry relative="1" as="geometry">
            <Array as="points">
              <mxPoint x="1350" y="810" />
              <mxPoint x="1390" y="810" />
            </Array>
          </mxGeometry>
        </mxCell>
        <mxCell id="c67V-Vx4SSD8u7TdkO2R-72" value="Reservations" style="rounded=0;whiteSpace=wrap;html=1;fillColor=#d5e8d4;strokeColor=#82b366;" vertex="1" parent="1">
          <mxGeometry x="1260" y="680" width="120" height="60" as="geometry" />
        </mxCell>
        <mxCell id="c67V-Vx4SSD8u7TdkO2R-75" value="ID" style="ellipse;whiteSpace=wrap;html=1;fillColor=#f8cecc;strokeColor=#b85450;" vertex="1" parent="1">
          <mxGeometry x="1100" y="800" width="120" height="80" as="geometry" />
        </mxCell>
        <mxCell id="c67V-Vx4SSD8u7TdkO2R-76" value="state_name" style="ellipse;whiteSpace=wrap;html=1;" vertex="1" parent="1">
          <mxGeometry x="1140" y="535" width="120" height="80" as="geometry" />
        </mxCell>
        <mxCell id="c67V-Vx4SSD8u7TdkO2R-77" value="phone_number" style="ellipse;whiteSpace=wrap;html=1;" vertex="1" parent="1">
          <mxGeometry x="1190" y="880" width="120" height="80" as="geometry" />
        </mxCell>
        <mxCell id="c67V-Vx4SSD8u7TdkO2R-78" value="name" style="ellipse;whiteSpace=wrap;html=1;" vertex="1" parent="1">
          <mxGeometry x="1400" y="780" width="120" height="80" as="geometry" />
        </mxCell>
        <mxCell id="c67V-Vx4SSD8u7TdkO2R-79" value="CPF" style="ellipse;whiteSpace=wrap;html=1;" vertex="1" parent="1">
          <mxGeometry x="1440" y="670" width="120" height="80" as="geometry" />
        </mxCell>
        <mxCell id="c67V-Vx4SSD8u7TdkO2R-80" value="Email" style="ellipse;whiteSpace=wrap;html=1;" vertex="1" parent="1">
          <mxGeometry x="1400" y="550" width="120" height="80" as="geometry" />
        </mxCell>
        <mxCell id="c67V-Vx4SSD8u7TdkO2R-81" value="country" style="ellipse;whiteSpace=wrap;html=1;" vertex="1" parent="1">
          <mxGeometry x="1260" y="490" width="120" height="80" as="geometry" />
        </mxCell>
        <mxCell id="c67V-Vx4SSD8u7TdkO2R-89" value="state_prefix" style="ellipse;whiteSpace=wrap;html=1;" vertex="1" parent="1">
          <mxGeometry x="1330" y="880" width="120" height="80" as="geometry" />
        </mxCell>
      </root>
    </mxGraphModel>
  </diagram>
</mxfile>
